<svg width="18" height="19" viewBox="0 0 18 19" fill="none" xmlns="http://www.w3.org/2000/svg">
    <path fill-rule="evenodd" clip-rule="evenodd" d="M9.00008 0.0333252C6.50651 0.0333252 4.48462 2.05522 4.48462 4.54879C4.48462 7.04236 6.50651 9.06425 9.00008 9.06425C11.4937 9.06425 13.5155 7.04236 13.5155 4.54879C13.5155 2.05522 11.4937 0.0333252 9.00008 0.0333252ZM9.00008 1.53332C10.6652 1.53332 12.0155 2.88364 12.0155 4.54879C12.0155 6.21394 10.6652 7.56425 9.00008 7.56425C7.33494 7.56425 5.98462 6.21394 5.98462 4.54879C5.98462 2.88364 7.33494 1.53332 9.00008 1.53332ZM8.99998 10.2176C13.5767 10.2176 17.3998 12.267 17.5571 15.0821L17.5621 15.2628V18.0166H16.0621V15.2628C16.0621 13.4254 12.9558 11.7176 8.99998 11.7176C5.13837 11.7176 2.08627 13.345 1.94312 15.1318L1.93787 15.2628V18.0166H0.437866V15.2628C0.437866 12.3551 4.32592 10.2176 8.99998 10.2176Z" fill="#999" style="fill:#999;fill-opacity:1;"/>
</svg>
